<svg t="1693576218784" class="icon" viewBox="0 0 1024 1024" version="1.1" xmlns="http://www.w3.org/2000/svg" p-id="6237" width="200" height="200"><path d="M864 64H160a32 32 0 0 0-32 32v832a32 32 0 0 0 32 32h704a32 32 0 0 0 32-32V96a32 32 0 0 0-32-32z m-32 832H192V128h640v768z" p-id="6238" fill="#707070"></path><path d="M512 336m-96 0a96 96 0 1 0 192 0 96 96 0 1 0-192 0Z" p-id="6239" fill="#707070"></path><path d="M512 656c158.496 0 176-48.064 176-48.064 0-107.968-57.632-175.936-176-175.936l32 32-32 96-32-96 32-32c-118.368 0-176 67.968-176 175.936 0 0 17.504 48.064 176 48.064zM288 736h448v64H288z" p-id="6240" fill="#707070"></path></svg>